<mxfile host="app.diagrams.net" agent="Mozilla/5.0 (Windows NT 10.0; Win64; x64; rv:131.0) Gecko/20100101 Firefox/131.0" version="24.8.0">
  <diagram name="Page-1" id="dhzZW3ODV765z-AvNMzt">
    <mxGraphModel dx="3968" dy="1492" grid="1" gridSize="10" guides="1" tooltips="1" connect="1" arrows="1" fold="1" page="1" pageScale="1" pageWidth="1100" pageHeight="1700" math="0" shadow="0">
      <root>
        <mxCell id="0" />
        <mxCell id="1" parent="0" />
        <mxCell id="9Zw5IbsphhX87AiI0oiR-15" value="" style="rounded=1;whiteSpace=wrap;html=1;fillStyle=dashed;fillColor=#00C220;fontColor=#ffffff;strokeColor=#05FF61;" vertex="1" parent="1">
          <mxGeometry x="1339" y="205" width="761" height="355" as="geometry" />
        </mxCell>
        <mxCell id="9Zw5IbsphhX87AiI0oiR-12" value="" style="rounded=1;whiteSpace=wrap;html=1;fillStyle=dashed;fillColor=#706BFF;fontColor=#ffffff;strokeColor=#896BFF;" vertex="1" parent="1">
          <mxGeometry x="1388" y="590" width="542" height="350" as="geometry" />
        </mxCell>
        <mxCell id="9Zw5IbsphhX87AiI0oiR-10" value="" style="rounded=1;whiteSpace=wrap;html=1;fillStyle=dashed;fillColor=#FF5454;fontColor=#ffffff;strokeColor=#FF4F4F;" vertex="1" parent="1">
          <mxGeometry x="1460" y="1180" width="720" height="340" as="geometry" />
        </mxCell>
        <mxCell id="9Zw5IbsphhX87AiI0oiR-8" value="" style="rounded=1;whiteSpace=wrap;html=1;fillStyle=dashed;fillColor=#1ba1e2;fontColor=#ffffff;strokeColor=#006EAF;" vertex="1" parent="1">
          <mxGeometry x="10" y="1142.5" width="540" height="447.5" as="geometry" />
        </mxCell>
        <mxCell id="9Zw5IbsphhX87AiI0oiR-6" value="" style="rounded=1;whiteSpace=wrap;html=1;fillStyle=dashed;fillColor=#d80073;fontColor=#ffffff;strokeColor=#A50040;" vertex="1" parent="1">
          <mxGeometry x="720" y="520" width="590" height="1000" as="geometry" />
        </mxCell>
        <mxCell id="9Zw5IbsphhX87AiI0oiR-4" value="" style="rounded=1;whiteSpace=wrap;html=1;fillStyle=dashed;fillColor=#008a00;fontColor=#ffffff;strokeColor=#005700;" vertex="1" parent="1">
          <mxGeometry x="40" y="680" width="510" height="410" as="geometry" />
        </mxCell>
        <mxCell id="9Zw5IbsphhX87AiI0oiR-2" value="" style="rounded=1;whiteSpace=wrap;html=1;fillStyle=dashed;fillColor=#76608a;fontColor=#ffffff;strokeColor=#432D57;" vertex="1" parent="1">
          <mxGeometry x="140" y="210" width="350" height="270" as="geometry" />
        </mxCell>
        <mxCell id="ZyGtXZ8tgcIjVtmT4fDo-10" value="" style="rounded=0;whiteSpace=wrap;html=1;" parent="1" vertex="1">
          <mxGeometry x="190" y="280" width="260" height="180" as="geometry" />
        </mxCell>
        <mxCell id="ZyGtXZ8tgcIjVtmT4fDo-11" value="" style="rounded=0;whiteSpace=wrap;html=1;" parent="1" vertex="1">
          <mxGeometry x="280" y="325" width="140" height="20" as="geometry" />
        </mxCell>
        <mxCell id="ZyGtXZ8tgcIjVtmT4fDo-12" value="&lt;font style=&quot;font-size: 18px;&quot;&gt;Login Page&lt;/font&gt;" style="text;html=1;align=center;verticalAlign=middle;whiteSpace=wrap;rounded=0;" parent="1" vertex="1">
          <mxGeometry x="260" y="220" width="100" height="50" as="geometry" />
        </mxCell>
        <mxCell id="ZyGtXZ8tgcIjVtmT4fDo-13" value="username" style="text;html=1;align=center;verticalAlign=middle;whiteSpace=wrap;rounded=0;" parent="1" vertex="1">
          <mxGeometry x="210" y="320" width="60" height="30" as="geometry" />
        </mxCell>
        <mxCell id="ZyGtXZ8tgcIjVtmT4fDo-15" value="" style="rounded=0;whiteSpace=wrap;html=1;" parent="1" vertex="1">
          <mxGeometry x="280" y="365" width="140" height="20" as="geometry" />
        </mxCell>
        <mxCell id="ZyGtXZ8tgcIjVtmT4fDo-16" value="parola" style="text;html=1;align=center;verticalAlign=middle;whiteSpace=wrap;rounded=0;" parent="1" vertex="1">
          <mxGeometry x="210" y="360" width="60" height="30" as="geometry" />
        </mxCell>
        <mxCell id="ZyGtXZ8tgcIjVtmT4fDo-20" style="edgeStyle=orthogonalEdgeStyle;rounded=0;orthogonalLoop=1;jettySize=auto;html=1;" parent="1" source="ZyGtXZ8tgcIjVtmT4fDo-17" target="ZyGtXZ8tgcIjVtmT4fDo-19" edge="1">
          <mxGeometry relative="1" as="geometry" />
        </mxCell>
        <mxCell id="ZyGtXZ8tgcIjVtmT4fDo-17" value="Login" style="rounded=1;whiteSpace=wrap;html=1;" parent="1" vertex="1">
          <mxGeometry x="320" y="420" width="70" height="30" as="geometry" />
        </mxCell>
        <mxCell id="ZyGtXZ8tgcIjVtmT4fDo-18" value="Back to Moodle" style="rounded=1;whiteSpace=wrap;html=1;" parent="1" vertex="1">
          <mxGeometry x="360" y="290" width="70" height="30" as="geometry" />
        </mxCell>
        <mxCell id="ZyGtXZ8tgcIjVtmT4fDo-19" value="&lt;div&gt;Credentiale&lt;/div&gt;&lt;div&gt;corecte&lt;br&gt;&lt;/div&gt;" style="rhombus;whiteSpace=wrap;html=1;" parent="1" vertex="1">
          <mxGeometry x="550" y="315" width="80" height="80" as="geometry" />
        </mxCell>
        <mxCell id="ZyGtXZ8tgcIjVtmT4fDo-21" style="edgeStyle=orthogonalEdgeStyle;rounded=0;orthogonalLoop=1;jettySize=auto;html=1;entryX=0.48;entryY=0.002;entryDx=0;entryDy=0;entryPerimeter=0;" parent="1" source="ZyGtXZ8tgcIjVtmT4fDo-19" target="ZyGtXZ8tgcIjVtmT4fDo-10" edge="1">
          <mxGeometry relative="1" as="geometry" />
        </mxCell>
        <mxCell id="ZyGtXZ8tgcIjVtmT4fDo-22" value="Nu" style="text;html=1;align=center;verticalAlign=middle;whiteSpace=wrap;rounded=0;" parent="1" vertex="1">
          <mxGeometry x="510" y="320" width="60" height="30" as="geometry" />
        </mxCell>
        <mxCell id="ZyGtXZ8tgcIjVtmT4fDo-23" value="&lt;div&gt;Da&lt;/div&gt;" style="text;html=1;align=center;verticalAlign=middle;whiteSpace=wrap;rounded=0;" parent="1" vertex="1">
          <mxGeometry x="630" y="325" width="60" height="30" as="geometry" />
        </mxCell>
        <mxCell id="ZyGtXZ8tgcIjVtmT4fDo-24" value="" style="rounded=0;whiteSpace=wrap;html=1;" parent="1" vertex="1">
          <mxGeometry x="700" y="280" width="390" height="170" as="geometry" />
        </mxCell>
        <mxCell id="ZyGtXZ8tgcIjVtmT4fDo-25" style="edgeStyle=orthogonalEdgeStyle;rounded=0;orthogonalLoop=1;jettySize=auto;html=1;entryX=0.516;entryY=0.002;entryDx=0;entryDy=0;entryPerimeter=0;" parent="1" source="ZyGtXZ8tgcIjVtmT4fDo-19" target="ZyGtXZ8tgcIjVtmT4fDo-24" edge="1">
          <mxGeometry relative="1" as="geometry" />
        </mxCell>
        <mxCell id="ZyGtXZ8tgcIjVtmT4fDo-26" value="&lt;font style=&quot;font-size: 18px;&quot;&gt;Home Page&lt;/font&gt;" style="text;html=1;align=center;verticalAlign=middle;whiteSpace=wrap;rounded=0;" parent="1" vertex="1">
          <mxGeometry x="840" y="220" width="100" height="50" as="geometry" />
        </mxCell>
        <mxCell id="ZyGtXZ8tgcIjVtmT4fDo-27" value="Logout" style="rounded=1;whiteSpace=wrap;html=1;" parent="1" vertex="1">
          <mxGeometry x="980" y="300" width="70" height="30" as="geometry" />
        </mxCell>
        <mxCell id="ZyGtXZ8tgcIjVtmT4fDo-28" value="&lt;font style=&quot;font-size: 14px;&quot;&gt;News feed?&lt;/font&gt;" style="rounded=0;whiteSpace=wrap;html=1;" parent="1" vertex="1">
          <mxGeometry x="825" y="295" width="135" height="55" as="geometry" />
        </mxCell>
        <mxCell id="ZyGtXZ8tgcIjVtmT4fDo-29" value="Home" style="rounded=0;whiteSpace=wrap;html=1;" parent="1" vertex="1">
          <mxGeometry x="710" y="420" width="60" height="30" as="geometry" />
        </mxCell>
        <mxCell id="ZyGtXZ8tgcIjVtmT4fDo-53" style="edgeStyle=orthogonalEdgeStyle;rounded=0;orthogonalLoop=1;jettySize=auto;html=1;entryX=1;entryY=0.5;entryDx=0;entryDy=0;" parent="1" source="ZyGtXZ8tgcIjVtmT4fDo-30" target="ZyGtXZ8tgcIjVtmT4fDo-42" edge="1">
          <mxGeometry relative="1" as="geometry">
            <Array as="points">
              <mxPoint x="800" y="490" />
              <mxPoint x="535" y="490" />
              <mxPoint x="535" y="600" />
            </Array>
          </mxGeometry>
        </mxCell>
        <mxCell id="ZyGtXZ8tgcIjVtmT4fDo-30" value="&lt;div&gt;Statusul &lt;br&gt;&lt;/div&gt;&lt;div&gt;tau&lt;br&gt;&lt;/div&gt;" style="rounded=0;whiteSpace=wrap;html=1;" parent="1" vertex="1">
          <mxGeometry x="770" y="420" width="60" height="30" as="geometry" />
        </mxCell>
        <mxCell id="ZyGtXZ8tgcIjVtmT4fDo-75" style="edgeStyle=orthogonalEdgeStyle;rounded=0;orthogonalLoop=1;jettySize=auto;html=1;" parent="1" source="ZyGtXZ8tgcIjVtmT4fDo-31" target="ZyGtXZ8tgcIjVtmT4fDo-74" edge="1">
          <mxGeometry relative="1" as="geometry">
            <Array as="points">
              <mxPoint x="860" y="530" />
              <mxPoint x="610" y="530" />
            </Array>
          </mxGeometry>
        </mxCell>
        <mxCell id="ZyGtXZ8tgcIjVtmT4fDo-31" value="&lt;div&gt;Cerere&lt;br&gt;&lt;/div&gt;" style="rounded=0;whiteSpace=wrap;html=1;" parent="1" vertex="1">
          <mxGeometry x="830" y="420" width="60" height="30" as="geometry" />
        </mxCell>
        <mxCell id="ZyGtXZ8tgcIjVtmT4fDo-116" style="edgeStyle=orthogonalEdgeStyle;rounded=0;orthogonalLoop=1;jettySize=auto;html=1;" parent="1" source="ZyGtXZ8tgcIjVtmT4fDo-32" target="ZyGtXZ8tgcIjVtmT4fDo-115" edge="1">
          <mxGeometry relative="1" as="geometry">
            <Array as="points">
              <mxPoint x="925" y="560" />
              <mxPoint x="670" y="560" />
              <mxPoint x="670" y="1040" />
              <mxPoint x="330" y="1040" />
            </Array>
          </mxGeometry>
        </mxCell>
        <mxCell id="ZyGtXZ8tgcIjVtmT4fDo-32" value="Documtente" style="rounded=0;whiteSpace=wrap;html=1;" parent="1" vertex="1">
          <mxGeometry x="890" y="420" width="70" height="30" as="geometry" />
        </mxCell>
        <mxCell id="ZyGtXZ8tgcIjVtmT4fDo-147" style="edgeStyle=orthogonalEdgeStyle;rounded=0;orthogonalLoop=1;jettySize=auto;html=1;" parent="1" source="ZyGtXZ8tgcIjVtmT4fDo-33" target="ZyGtXZ8tgcIjVtmT4fDo-132" edge="1">
          <mxGeometry relative="1" as="geometry" />
        </mxCell>
        <mxCell id="ZyGtXZ8tgcIjVtmT4fDo-33" value="Rezervari" style="rounded=0;whiteSpace=wrap;html=1;" parent="1" vertex="1">
          <mxGeometry x="960" y="420" width="60" height="30" as="geometry" />
        </mxCell>
        <mxCell id="ZyGtXZ8tgcIjVtmT4fDo-34" value="Contact us" style="rounded=0;whiteSpace=wrap;html=1;" parent="1" vertex="1">
          <mxGeometry x="1020" y="420" width="70" height="30" as="geometry" />
        </mxCell>
        <mxCell id="ZyGtXZ8tgcIjVtmT4fDo-36" value="&lt;font style=&quot;font-size: 14px;&quot;&gt;Info camine?&lt;/font&gt;" style="rounded=0;whiteSpace=wrap;html=1;" parent="1" vertex="1">
          <mxGeometry x="720" y="295" width="90" height="60" as="geometry" />
        </mxCell>
        <mxCell id="ElczL5HrcGGBrYlK7Y7n-20" style="edgeStyle=orthogonalEdgeStyle;rounded=0;orthogonalLoop=1;jettySize=auto;html=1;entryX=0;entryY=0.5;entryDx=0;entryDy=0;" parent="1" source="ZyGtXZ8tgcIjVtmT4fDo-38" target="ElczL5HrcGGBrYlK7Y7n-5" edge="1">
          <mxGeometry relative="1" as="geometry" />
        </mxCell>
        <mxCell id="ZyGtXZ8tgcIjVtmT4fDo-38" value="Inbox&amp;nbsp; mesaje" style="rounded=1;whiteSpace=wrap;html=1;" parent="1" vertex="1">
          <mxGeometry x="975" y="360" width="90" height="30" as="geometry" />
        </mxCell>
        <mxCell id="ZyGtXZ8tgcIjVtmT4fDo-39" style="edgeStyle=orthogonalEdgeStyle;rounded=0;orthogonalLoop=1;jettySize=auto;html=1;entryX=0.469;entryY=-0.009;entryDx=0;entryDy=0;entryPerimeter=0;" parent="1" source="ZyGtXZ8tgcIjVtmT4fDo-27" target="ZyGtXZ8tgcIjVtmT4fDo-10" edge="1">
          <mxGeometry relative="1" as="geometry">
            <Array as="points">
              <mxPoint x="1020" y="190" />
              <mxPoint x="312" y="190" />
            </Array>
          </mxGeometry>
        </mxCell>
        <mxCell id="ZyGtXZ8tgcIjVtmT4fDo-42" value="&lt;font size=&quot;3&quot;&gt;ex: Cerere cazare in prelucrare&lt;br&gt;&lt;/font&gt;" style="rounded=0;whiteSpace=wrap;html=1;" parent="1" vertex="1">
          <mxGeometry x="-95" y="550" width="400" height="100" as="geometry" />
        </mxCell>
        <mxCell id="ZyGtXZ8tgcIjVtmT4fDo-43" value="Logout" style="rounded=1;whiteSpace=wrap;html=1;" parent="1" vertex="1">
          <mxGeometry x="195" y="560" width="70" height="30" as="geometry" />
        </mxCell>
        <mxCell id="ZyGtXZ8tgcIjVtmT4fDo-44" value="Home" style="rounded=0;whiteSpace=wrap;html=1;" parent="1" vertex="1">
          <mxGeometry x="-75" y="620" width="60" height="30" as="geometry" />
        </mxCell>
        <mxCell id="ZyGtXZ8tgcIjVtmT4fDo-45" value="&lt;div&gt;Statusul &lt;br&gt;&lt;/div&gt;&lt;div&gt;tau&lt;br&gt;&lt;/div&gt;" style="rounded=0;whiteSpace=wrap;html=1;" parent="1" vertex="1">
          <mxGeometry x="-15" y="620" width="60" height="30" as="geometry" />
        </mxCell>
        <mxCell id="ZyGtXZ8tgcIjVtmT4fDo-46" value="&lt;div&gt;Cerere&lt;br&gt;&lt;/div&gt;" style="rounded=0;whiteSpace=wrap;html=1;" parent="1" vertex="1">
          <mxGeometry x="45" y="620" width="60" height="30" as="geometry" />
        </mxCell>
        <mxCell id="ZyGtXZ8tgcIjVtmT4fDo-47" value="Documtente" style="rounded=0;whiteSpace=wrap;html=1;" parent="1" vertex="1">
          <mxGeometry x="105" y="620" width="70" height="30" as="geometry" />
        </mxCell>
        <mxCell id="ZyGtXZ8tgcIjVtmT4fDo-48" value="Rezervari" style="rounded=0;whiteSpace=wrap;html=1;" parent="1" vertex="1">
          <mxGeometry x="175" y="620" width="60" height="30" as="geometry" />
        </mxCell>
        <mxCell id="ZyGtXZ8tgcIjVtmT4fDo-49" value="Contact us" style="rounded=0;whiteSpace=wrap;html=1;" parent="1" vertex="1">
          <mxGeometry x="235" y="620" width="60" height="30" as="geometry" />
        </mxCell>
        <mxCell id="ZyGtXZ8tgcIjVtmT4fDo-54" value="" style="rounded=0;whiteSpace=wrap;html=1;" parent="1" vertex="1">
          <mxGeometry x="80" y="820" width="370" height="190" as="geometry" />
        </mxCell>
        <mxCell id="ZyGtXZ8tgcIjVtmT4fDo-55" value="&lt;font style=&quot;font-size: 18px;&quot;&gt;Status Page&lt;/font&gt;" style="text;html=1;align=center;verticalAlign=middle;whiteSpace=wrap;rounded=0;" parent="1" vertex="1">
          <mxGeometry x="15" y="510" width="110" height="50" as="geometry" />
        </mxCell>
        <mxCell id="ZyGtXZ8tgcIjVtmT4fDo-56" value="caz special 1" style="text;html=1;align=center;verticalAlign=middle;whiteSpace=wrap;rounded=0;" parent="1" vertex="1">
          <mxGeometry x="270" y="835" width="90" height="30" as="geometry" />
        </mxCell>
        <mxCell id="ZyGtXZ8tgcIjVtmT4fDo-57" value="caz special 2" style="text;html=1;align=center;verticalAlign=middle;whiteSpace=wrap;rounded=0;" parent="1" vertex="1">
          <mxGeometry x="270" y="855" width="90" height="30" as="geometry" />
        </mxCell>
        <mxCell id="ZyGtXZ8tgcIjVtmT4fDo-58" value="caz special 3" style="text;html=1;align=center;verticalAlign=middle;whiteSpace=wrap;rounded=0;" parent="1" vertex="1">
          <mxGeometry x="270" y="875" width="90" height="30" as="geometry" />
        </mxCell>
        <mxCell id="ZyGtXZ8tgcIjVtmT4fDo-60" value="" style="whiteSpace=wrap;html=1;aspect=fixed;" parent="1" vertex="1">
          <mxGeometry x="255" y="842.5" width="15" height="15" as="geometry" />
        </mxCell>
        <mxCell id="ZyGtXZ8tgcIjVtmT4fDo-61" value="" style="whiteSpace=wrap;html=1;aspect=fixed;" parent="1" vertex="1">
          <mxGeometry x="255" y="862.5" width="15" height="15" as="geometry" />
        </mxCell>
        <mxCell id="ZyGtXZ8tgcIjVtmT4fDo-62" value="" style="whiteSpace=wrap;html=1;aspect=fixed;" parent="1" vertex="1">
          <mxGeometry x="255" y="882.5" width="15" height="15" as="geometry" />
        </mxCell>
        <mxCell id="ZyGtXZ8tgcIjVtmT4fDo-64" value="" style="rounded=0;whiteSpace=wrap;html=1;" parent="1" vertex="1">
          <mxGeometry x="255" y="905" width="100" height="20" as="geometry" />
        </mxCell>
        <mxCell id="ZyGtXZ8tgcIjVtmT4fDo-65" value="nr&amp;nbsp; tel" style="text;html=1;align=center;verticalAlign=middle;whiteSpace=wrap;rounded=0;" parent="1" vertex="1">
          <mxGeometry x="350" y="900" width="60" height="30" as="geometry" />
        </mxCell>
        <mxCell id="ZyGtXZ8tgcIjVtmT4fDo-67" value="" style="rounded=0;whiteSpace=wrap;html=1;" parent="1" vertex="1">
          <mxGeometry x="255" y="935" width="100" height="20" as="geometry" />
        </mxCell>
        <mxCell id="ZyGtXZ8tgcIjVtmT4fDo-68" value="nr&amp;nbsp; masina" style="text;html=1;align=center;verticalAlign=middle;whiteSpace=wrap;rounded=0;" parent="1" vertex="1">
          <mxGeometry x="360" y="930" width="70" height="30" as="geometry" />
        </mxCell>
        <mxCell id="ZyGtXZ8tgcIjVtmT4fDo-90" style="edgeStyle=orthogonalEdgeStyle;rounded=0;orthogonalLoop=1;jettySize=auto;html=1;entryX=1;entryY=1;entryDx=0;entryDy=0;" parent="1" source="ZyGtXZ8tgcIjVtmT4fDo-70" target="ZyGtXZ8tgcIjVtmT4fDo-86" edge="1">
          <mxGeometry relative="1" as="geometry">
            <Array as="points">
              <mxPoint x="510" y="980" />
              <mxPoint x="510" y="805" />
            </Array>
          </mxGeometry>
        </mxCell>
        <mxCell id="ZyGtXZ8tgcIjVtmT4fDo-70" value="Submit" style="rounded=1;whiteSpace=wrap;html=1;" parent="1" vertex="1">
          <mxGeometry x="257.5" y="965" width="95" height="30" as="geometry" />
        </mxCell>
        <mxCell id="ZyGtXZ8tgcIjVtmT4fDo-89" style="edgeStyle=orthogonalEdgeStyle;rounded=0;orthogonalLoop=1;jettySize=auto;html=1;entryX=0.5;entryY=0;entryDx=0;entryDy=0;" parent="1" source="ZyGtXZ8tgcIjVtmT4fDo-73" target="ZyGtXZ8tgcIjVtmT4fDo-82" edge="1">
          <mxGeometry relative="1" as="geometry">
            <Array as="points">
              <mxPoint x="10" y="850" />
              <mxPoint x="10" y="690" />
              <mxPoint x="410" y="690" />
            </Array>
          </mxGeometry>
        </mxCell>
        <mxCell id="ZyGtXZ8tgcIjVtmT4fDo-73" value="Edit&amp;nbsp; cerere" style="rounded=1;whiteSpace=wrap;html=1;" parent="1" vertex="1">
          <mxGeometry x="95" y="835" width="95" height="30" as="geometry" />
        </mxCell>
        <mxCell id="ZyGtXZ8tgcIjVtmT4fDo-74" value="&lt;div&gt;Formular&lt;/div&gt;&lt;div&gt;Activ&lt;br&gt;&lt;/div&gt;" style="rhombus;whiteSpace=wrap;html=1;" parent="1" vertex="1">
          <mxGeometry x="570" y="600" width="80" height="80" as="geometry" />
        </mxCell>
        <mxCell id="ZyGtXZ8tgcIjVtmT4fDo-76" value="DA" style="text;html=1;align=center;verticalAlign=middle;whiteSpace=wrap;rounded=0;" parent="1" vertex="1">
          <mxGeometry x="530" y="610" width="60" height="30" as="geometry" />
        </mxCell>
        <mxCell id="ZyGtXZ8tgcIjVtmT4fDo-78" value="&lt;font style=&quot;font-size: 18px;&quot;&gt;Cerere Cazare&lt;/font&gt;" style="text;html=1;align=center;verticalAlign=middle;whiteSpace=wrap;rounded=0;" parent="1" vertex="1">
          <mxGeometry x="100" y="790" width="130" height="30" as="geometry" />
        </mxCell>
        <mxCell id="ZyGtXZ8tgcIjVtmT4fDo-80" style="edgeStyle=orthogonalEdgeStyle;rounded=0;orthogonalLoop=1;jettySize=auto;html=1;entryX=0.451;entryY=-0.005;entryDx=0;entryDy=0;entryPerimeter=0;exitX=0;exitY=0.5;exitDx=0;exitDy=0;" parent="1" source="ZyGtXZ8tgcIjVtmT4fDo-82" target="ZyGtXZ8tgcIjVtmT4fDo-54" edge="1">
          <mxGeometry relative="1" as="geometry" />
        </mxCell>
        <mxCell id="ZyGtXZ8tgcIjVtmT4fDo-81" value="" style="edgeStyle=orthogonalEdgeStyle;rounded=0;orthogonalLoop=1;jettySize=auto;html=1;entryX=1;entryY=0.5;entryDx=0;entryDy=0;" parent="1" source="ZyGtXZ8tgcIjVtmT4fDo-74" target="ZyGtXZ8tgcIjVtmT4fDo-82" edge="1">
          <mxGeometry relative="1" as="geometry">
            <mxPoint x="570" y="640" as="sourcePoint" />
            <mxPoint x="222" y="679" as="targetPoint" />
          </mxGeometry>
        </mxCell>
        <mxCell id="ZyGtXZ8tgcIjVtmT4fDo-82" value="Se poate completa" style="text;html=1;align=center;verticalAlign=middle;whiteSpace=wrap;rounded=0;" parent="1" vertex="1">
          <mxGeometry x="380" y="710" width="60" height="30" as="geometry" />
        </mxCell>
        <mxCell id="ZyGtXZ8tgcIjVtmT4fDo-83" style="edgeStyle=orthogonalEdgeStyle;rounded=0;orthogonalLoop=1;jettySize=auto;html=1;entryX=0.541;entryY=0;entryDx=0;entryDy=0;entryPerimeter=0;" parent="1" source="ZyGtXZ8tgcIjVtmT4fDo-86" target="ZyGtXZ8tgcIjVtmT4fDo-54" edge="1">
          <mxGeometry relative="1" as="geometry">
            <Array as="points">
              <mxPoint x="280" y="790" />
            </Array>
          </mxGeometry>
        </mxCell>
        <mxCell id="ZyGtXZ8tgcIjVtmT4fDo-84" value="NU" style="text;html=1;align=center;verticalAlign=middle;whiteSpace=wrap;rounded=0;" parent="1" vertex="1">
          <mxGeometry x="560" y="670" width="60" height="30" as="geometry" />
        </mxCell>
        <mxCell id="ZyGtXZ8tgcIjVtmT4fDo-85" value="" style="edgeStyle=orthogonalEdgeStyle;rounded=0;orthogonalLoop=1;jettySize=auto;html=1;entryX=1;entryY=0.5;entryDx=0;entryDy=0;" parent="1" source="ZyGtXZ8tgcIjVtmT4fDo-74" target="ZyGtXZ8tgcIjVtmT4fDo-86" edge="1">
          <mxGeometry relative="1" as="geometry">
            <mxPoint x="610" y="680" as="sourcePoint" />
            <mxPoint x="250" y="730" as="targetPoint" />
            <Array as="points">
              <mxPoint x="610" y="790" />
            </Array>
          </mxGeometry>
        </mxCell>
        <mxCell id="ZyGtXZ8tgcIjVtmT4fDo-86" value="Nu se poate completa" style="text;html=1;align=center;verticalAlign=middle;whiteSpace=wrap;rounded=0;" parent="1" vertex="1">
          <mxGeometry x="410" y="775" width="60" height="30" as="geometry" />
        </mxCell>
        <mxCell id="ZyGtXZ8tgcIjVtmT4fDo-87" value="GDPR" style="text;html=1;align=center;verticalAlign=middle;whiteSpace=wrap;rounded=0;" parent="1" vertex="1">
          <mxGeometry x="300" y="390" width="90" height="30" as="geometry" />
        </mxCell>
        <mxCell id="ZyGtXZ8tgcIjVtmT4fDo-88" value="" style="whiteSpace=wrap;html=1;aspect=fixed;" parent="1" vertex="1">
          <mxGeometry x="305" y="397.5" width="15" height="15" as="geometry" />
        </mxCell>
        <mxCell id="ZyGtXZ8tgcIjVtmT4fDo-91" value="Help" style="rounded=1;whiteSpace=wrap;html=1;" parent="1" vertex="1">
          <mxGeometry x="100" y="965" width="95" height="30" as="geometry" />
        </mxCell>
        <mxCell id="ZyGtXZ8tgcIjVtmT4fDo-92" value="&lt;font style=&quot;font-size: 18px;&quot;&gt;DEADLINE&lt;/font&gt;" style="rounded=0;whiteSpace=wrap;html=1;" parent="1" vertex="1">
          <mxGeometry x="95" y="882.5" width="120" height="60" as="geometry" />
        </mxCell>
        <mxCell id="ZyGtXZ8tgcIjVtmT4fDo-94" value="&lt;font style=&quot;font-size: 18px;&quot;&gt;DEADLINE&lt;/font&gt;" style="rounded=0;whiteSpace=wrap;html=1;" parent="1" vertex="1">
          <mxGeometry x="835" y="350" width="120" height="60" as="geometry" />
        </mxCell>
        <mxCell id="ZyGtXZ8tgcIjVtmT4fDo-95" value="" style="rounded=0;whiteSpace=wrap;html=1;" parent="1" vertex="1">
          <mxGeometry x="120" y="1362.5" width="350" height="210" as="geometry" />
        </mxCell>
        <mxCell id="ZyGtXZ8tgcIjVtmT4fDo-101" value="" style="html=1;shadow=0;dashed=0;align=center;verticalAlign=middle;shape=mxgraph.arrows2.arrow;dy=0.58;dx=10.5;notch=0;rotation=-90;" parent="1" vertex="1">
          <mxGeometry x="160" y="1410" width="20" height="20" as="geometry" />
        </mxCell>
        <mxCell id="ZyGtXZ8tgcIjVtmT4fDo-105" value="Upload doc caz 1" style="text;html=1;align=center;verticalAlign=middle;whiteSpace=wrap;rounded=0;" parent="1" vertex="1">
          <mxGeometry x="180" y="1405" width="100" height="30" as="geometry" />
        </mxCell>
        <mxCell id="ZyGtXZ8tgcIjVtmT4fDo-106" value="" style="html=1;shadow=0;dashed=0;align=center;verticalAlign=middle;shape=mxgraph.arrows2.arrow;dy=0.58;dx=10.5;notch=0;rotation=-90;" parent="1" vertex="1">
          <mxGeometry x="160" y="1445" width="20" height="20" as="geometry" />
        </mxCell>
        <mxCell id="ZyGtXZ8tgcIjVtmT4fDo-107" value="Upload doc caz 2" style="text;html=1;align=center;verticalAlign=middle;whiteSpace=wrap;rounded=0;" parent="1" vertex="1">
          <mxGeometry x="180" y="1440" width="100" height="30" as="geometry" />
        </mxCell>
        <mxCell id="ZyGtXZ8tgcIjVtmT4fDo-108" value="" style="html=1;shadow=0;dashed=0;align=center;verticalAlign=middle;shape=mxgraph.arrows2.arrow;dy=0.58;dx=10.5;notch=0;rotation=-90;" parent="1" vertex="1">
          <mxGeometry x="160" y="1480" width="20" height="20" as="geometry" />
        </mxCell>
        <mxCell id="ZyGtXZ8tgcIjVtmT4fDo-109" value="Upload doc caz 3" style="text;html=1;align=center;verticalAlign=middle;whiteSpace=wrap;rounded=0;" parent="1" vertex="1">
          <mxGeometry x="180" y="1475" width="100" height="30" as="geometry" />
        </mxCell>
        <mxCell id="ZyGtXZ8tgcIjVtmT4fDo-111" value="Help" style="rounded=1;whiteSpace=wrap;html=1;" parent="1" vertex="1">
          <mxGeometry x="350" y="1535" width="90" height="27" as="geometry" />
        </mxCell>
        <mxCell id="ZyGtXZ8tgcIjVtmT4fDo-129" style="edgeStyle=orthogonalEdgeStyle;rounded=0;orthogonalLoop=1;jettySize=auto;html=1;" parent="1" source="ZyGtXZ8tgcIjVtmT4fDo-112" target="ZyGtXZ8tgcIjVtmT4fDo-123" edge="1">
          <mxGeometry relative="1" as="geometry">
            <Array as="points">
              <mxPoint x="70" y="1536" />
              <mxPoint x="70" y="1270" />
            </Array>
          </mxGeometry>
        </mxCell>
        <mxCell id="ZyGtXZ8tgcIjVtmT4fDo-112" value="Submit" style="rounded=1;whiteSpace=wrap;html=1;" parent="1" vertex="1">
          <mxGeometry x="170" y="1523" width="90" height="27" as="geometry" />
        </mxCell>
        <mxCell id="ZyGtXZ8tgcIjVtmT4fDo-130" style="edgeStyle=orthogonalEdgeStyle;rounded=0;orthogonalLoop=1;jettySize=auto;html=1;entryX=1;entryY=0.25;entryDx=0;entryDy=0;" parent="1" source="ZyGtXZ8tgcIjVtmT4fDo-113" target="ZyGtXZ8tgcIjVtmT4fDo-120" edge="1">
          <mxGeometry relative="1" as="geometry">
            <Array as="points">
              <mxPoint x="530" y="1391.5" />
              <mxPoint x="530" y="1258" />
            </Array>
          </mxGeometry>
        </mxCell>
        <mxCell id="ZyGtXZ8tgcIjVtmT4fDo-113" value="Edit" style="rounded=1;whiteSpace=wrap;html=1;" parent="1" vertex="1">
          <mxGeometry x="350" y="1378" width="90" height="27" as="geometry" />
        </mxCell>
        <mxCell id="ZyGtXZ8tgcIjVtmT4fDo-114" value="&lt;font size=&quot;3&quot;&gt;DEADLINE&lt;/font&gt;" style="rounded=0;whiteSpace=wrap;html=1;" parent="1" vertex="1">
          <mxGeometry x="330" y="1435" width="120" height="60" as="geometry" />
        </mxCell>
        <mxCell id="ZyGtXZ8tgcIjVtmT4fDo-117" style="edgeStyle=orthogonalEdgeStyle;rounded=0;orthogonalLoop=1;jettySize=auto;html=1;" parent="1" source="ZyGtXZ8tgcIjVtmT4fDo-120" edge="1">
          <mxGeometry relative="1" as="geometry">
            <mxPoint x="410" y="1360" as="targetPoint" />
          </mxGeometry>
        </mxCell>
        <mxCell id="ZyGtXZ8tgcIjVtmT4fDo-115" value="&lt;div&gt;Formular&lt;/div&gt;&lt;div&gt;Activ&lt;br&gt;&lt;/div&gt;" style="rhombus;whiteSpace=wrap;html=1;" parent="1" vertex="1">
          <mxGeometry x="290" y="1150" width="80" height="80" as="geometry" />
        </mxCell>
        <mxCell id="ZyGtXZ8tgcIjVtmT4fDo-118" value="DA" style="text;html=1;align=center;verticalAlign=middle;whiteSpace=wrap;rounded=0;" parent="1" vertex="1">
          <mxGeometry x="350" y="1160" width="60" height="30" as="geometry" />
        </mxCell>
        <mxCell id="ZyGtXZ8tgcIjVtmT4fDo-119" value="" style="edgeStyle=orthogonalEdgeStyle;rounded=0;orthogonalLoop=1;jettySize=auto;html=1;" parent="1" source="ZyGtXZ8tgcIjVtmT4fDo-115" target="ZyGtXZ8tgcIjVtmT4fDo-120" edge="1">
          <mxGeometry relative="1" as="geometry">
            <mxPoint x="410" y="1360" as="targetPoint" />
            <mxPoint x="370" y="1190" as="sourcePoint" />
          </mxGeometry>
        </mxCell>
        <mxCell id="ZyGtXZ8tgcIjVtmT4fDo-120" value="Se poate completa" style="text;html=1;align=center;verticalAlign=middle;whiteSpace=wrap;rounded=0;" parent="1" vertex="1">
          <mxGeometry x="380" y="1250" width="60" height="30" as="geometry" />
        </mxCell>
        <mxCell id="ZyGtXZ8tgcIjVtmT4fDo-122" value="NU" style="text;html=1;align=center;verticalAlign=middle;whiteSpace=wrap;rounded=0;" parent="1" vertex="1">
          <mxGeometry x="240" y="1160" width="60" height="30" as="geometry" />
        </mxCell>
        <mxCell id="ZyGtXZ8tgcIjVtmT4fDo-127" value="" style="edgeStyle=orthogonalEdgeStyle;rounded=0;orthogonalLoop=1;jettySize=auto;html=1;entryX=0.5;entryY=0;entryDx=0;entryDy=0;" parent="1" source="ZyGtXZ8tgcIjVtmT4fDo-115" target="ZyGtXZ8tgcIjVtmT4fDo-123" edge="1">
          <mxGeometry relative="1" as="geometry">
            <mxPoint x="290" y="1190" as="sourcePoint" />
            <mxPoint x="208" y="1363" as="targetPoint" />
            <Array as="points">
              <mxPoint x="200" y="1190" />
            </Array>
          </mxGeometry>
        </mxCell>
        <mxCell id="ZyGtXZ8tgcIjVtmT4fDo-123" value="Nu se poate completa" style="text;html=1;align=center;verticalAlign=middle;whiteSpace=wrap;rounded=0;" parent="1" vertex="1">
          <mxGeometry x="170" y="1265" width="60" height="30" as="geometry" />
        </mxCell>
        <mxCell id="ZyGtXZ8tgcIjVtmT4fDo-128" style="edgeStyle=orthogonalEdgeStyle;rounded=0;orthogonalLoop=1;jettySize=auto;html=1;entryX=0.231;entryY=0.007;entryDx=0;entryDy=0;entryPerimeter=0;" parent="1" source="ZyGtXZ8tgcIjVtmT4fDo-123" target="ZyGtXZ8tgcIjVtmT4fDo-95" edge="1">
          <mxGeometry relative="1" as="geometry" />
        </mxCell>
        <mxCell id="ZyGtXZ8tgcIjVtmT4fDo-132" value="" style="rounded=0;whiteSpace=wrap;html=1;" parent="1" vertex="1">
          <mxGeometry x="835" y="630.5" width="420" height="267" as="geometry" />
        </mxCell>
        <mxCell id="ZyGtXZ8tgcIjVtmT4fDo-167" style="edgeStyle=orthogonalEdgeStyle;rounded=0;orthogonalLoop=1;jettySize=auto;html=1;" parent="1" source="ZyGtXZ8tgcIjVtmT4fDo-135" target="ZyGtXZ8tgcIjVtmT4fDo-165" edge="1">
          <mxGeometry relative="1" as="geometry">
            <Array as="points">
              <mxPoint x="980" y="678" />
            </Array>
          </mxGeometry>
        </mxCell>
        <mxCell id="ZyGtXZ8tgcIjVtmT4fDo-135" value="T1" style="rounded=1;whiteSpace=wrap;html=1;" parent="1" vertex="1">
          <mxGeometry x="885" y="660" width="70" height="35" as="geometry" />
        </mxCell>
        <mxCell id="ZyGtXZ8tgcIjVtmT4fDo-170" style="edgeStyle=orthogonalEdgeStyle;rounded=0;orthogonalLoop=1;jettySize=auto;html=1;entryX=0.341;entryY=-0.003;entryDx=0;entryDy=0;entryPerimeter=0;" parent="1" source="ZyGtXZ8tgcIjVtmT4fDo-136" target="ZyGtXZ8tgcIjVtmT4fDo-162" edge="1">
          <mxGeometry relative="1" as="geometry">
            <mxPoint x="980" y="969.9999999999998" as="targetPoint" />
            <Array as="points">
              <mxPoint x="980" y="765" />
            </Array>
          </mxGeometry>
        </mxCell>
        <mxCell id="ZyGtXZ8tgcIjVtmT4fDo-136" value="T2" style="rounded=1;whiteSpace=wrap;html=1;" parent="1" vertex="1">
          <mxGeometry x="995" y="746.5" width="70" height="35" as="geometry" />
        </mxCell>
        <mxCell id="ZyGtXZ8tgcIjVtmT4fDo-137" value="T3" style="rounded=1;whiteSpace=wrap;html=1;" parent="1" vertex="1">
          <mxGeometry x="995" y="660" width="70" height="35" as="geometry" />
        </mxCell>
        <mxCell id="ZyGtXZ8tgcIjVtmT4fDo-138" value="Help" style="rounded=1;whiteSpace=wrap;html=1;" parent="1" vertex="1">
          <mxGeometry x="1135" y="842.5" width="90" height="35" as="geometry" />
        </mxCell>
        <mxCell id="ZyGtXZ8tgcIjVtmT4fDo-139" value="DEADLINE" style="rounded=0;whiteSpace=wrap;html=1;" parent="1" vertex="1">
          <mxGeometry x="1115" y="742.5" width="120" height="60" as="geometry" />
        </mxCell>
        <mxCell id="ZyGtXZ8tgcIjVtmT4fDo-143" value="&lt;div&gt;Camerele&lt;/div&gt;&lt;div&gt;mele&lt;br&gt;&lt;/div&gt;" style="rounded=1;whiteSpace=wrap;html=1;" parent="1" vertex="1">
          <mxGeometry x="1125" y="657.5" width="110" height="40" as="geometry" />
        </mxCell>
        <mxCell id="ZyGtXZ8tgcIjVtmT4fDo-148" value="T4" style="rounded=1;whiteSpace=wrap;html=1;" parent="1" vertex="1">
          <mxGeometry x="885" y="746.5" width="70" height="35" as="geometry" />
        </mxCell>
        <mxCell id="ZyGtXZ8tgcIjVtmT4fDo-171" style="edgeStyle=orthogonalEdgeStyle;rounded=0;orthogonalLoop=1;jettySize=auto;html=1;entryX=0.341;entryY=-0.003;entryDx=0;entryDy=0;entryPerimeter=0;" parent="1" source="ZyGtXZ8tgcIjVtmT4fDo-149" target="ZyGtXZ8tgcIjVtmT4fDo-162" edge="1">
          <mxGeometry relative="1" as="geometry">
            <mxPoint x="980" y="969.9999999999998" as="targetPoint" />
            <Array as="points">
              <mxPoint x="980" y="853" />
            </Array>
          </mxGeometry>
        </mxCell>
        <mxCell id="ZyGtXZ8tgcIjVtmT4fDo-149" value="T5" style="rounded=1;whiteSpace=wrap;html=1;" parent="1" vertex="1">
          <mxGeometry x="995" y="835" width="70" height="35" as="geometry" />
        </mxCell>
        <mxCell id="ZyGtXZ8tgcIjVtmT4fDo-154" value="T6" style="rounded=1;whiteSpace=wrap;html=1;" parent="1" vertex="1">
          <mxGeometry x="885" y="835" width="70" height="35" as="geometry" />
        </mxCell>
        <mxCell id="ZyGtXZ8tgcIjVtmT4fDo-162" value="" style="rounded=0;whiteSpace=wrap;html=1;" parent="1" vertex="1">
          <mxGeometry x="830" y="972.5" width="440" height="170" as="geometry" />
        </mxCell>
        <mxCell id="ZyGtXZ8tgcIjVtmT4fDo-163" value="Help" style="rounded=1;whiteSpace=wrap;html=1;" parent="1" vertex="1">
          <mxGeometry x="1155" y="1040" width="90" height="35" as="geometry" />
        </mxCell>
        <mxCell id="ZyGtXZ8tgcIjVtmT4fDo-164" value="&lt;div&gt;Camerele&lt;/div&gt;&lt;div&gt;mele&lt;br&gt;&lt;/div&gt;" style="rounded=1;whiteSpace=wrap;html=1;" parent="1" vertex="1">
          <mxGeometry x="1145" y="980" width="110" height="40" as="geometry" />
        </mxCell>
        <mxCell id="ZyGtXZ8tgcIjVtmT4fDo-165" value="&lt;div&gt;&lt;font style=&quot;font-size: 18px;&quot;&gt;T1&lt;br&gt;&lt;/font&gt;&lt;/div&gt;&lt;div&gt;&lt;font style=&quot;font-size: 14px;&quot;&gt;- informatii camin - &lt;br&gt;&lt;/font&gt;&lt;div align=&quot;left&quot;&gt;&lt;font size=&quot;3&quot;&gt;poze&lt;/font&gt;&lt;/div&gt;&lt;/div&gt;&lt;div align=&quot;left&quot;&gt;&lt;font size=&quot;3&quot;&gt;nr persoane camera, nr etaje, baie, bucatarie, positia soarelui&lt;/font&gt;&lt;font size=&quot;3&quot;&gt;, etc.&lt;/font&gt;&lt;/div&gt;" style="rounded=0;whiteSpace=wrap;html=1;" parent="1" vertex="1">
          <mxGeometry x="850" y="995" width="260" height="125" as="geometry" />
        </mxCell>
        <mxCell id="ZyGtXZ8tgcIjVtmT4fDo-168" style="edgeStyle=orthogonalEdgeStyle;rounded=0;orthogonalLoop=1;jettySize=auto;html=1;entryX=0.341;entryY=-0.002;entryDx=0;entryDy=0;entryPerimeter=0;" parent="1" source="ZyGtXZ8tgcIjVtmT4fDo-137" target="ZyGtXZ8tgcIjVtmT4fDo-162" edge="1">
          <mxGeometry relative="1" as="geometry">
            <mxPoint x="980" y="970" as="targetPoint" />
            <Array as="points">
              <mxPoint x="980" y="677" />
            </Array>
          </mxGeometry>
        </mxCell>
        <mxCell id="ZyGtXZ8tgcIjVtmT4fDo-169" style="edgeStyle=orthogonalEdgeStyle;rounded=0;orthogonalLoop=1;jettySize=auto;html=1;entryX=0.341;entryY=-0.002;entryDx=0;entryDy=0;entryPerimeter=0;" parent="1" source="ZyGtXZ8tgcIjVtmT4fDo-148" target="ZyGtXZ8tgcIjVtmT4fDo-162" edge="1">
          <mxGeometry relative="1" as="geometry">
            <mxPoint x="980" y="970" as="targetPoint" />
            <Array as="points">
              <mxPoint x="980" y="764" />
            </Array>
          </mxGeometry>
        </mxCell>
        <mxCell id="ZyGtXZ8tgcIjVtmT4fDo-172" style="edgeStyle=orthogonalEdgeStyle;rounded=0;orthogonalLoop=1;jettySize=auto;html=1;entryX=0.341;entryY=-0.002;entryDx=0;entryDy=0;entryPerimeter=0;" parent="1" source="ZyGtXZ8tgcIjVtmT4fDo-154" target="ZyGtXZ8tgcIjVtmT4fDo-162" edge="1">
          <mxGeometry relative="1" as="geometry">
            <mxPoint x="980" y="970" as="targetPoint" />
            <Array as="points">
              <mxPoint x="980" y="853" />
            </Array>
          </mxGeometry>
        </mxCell>
        <mxCell id="ZyGtXZ8tgcIjVtmT4fDo-180" style="edgeStyle=orthogonalEdgeStyle;rounded=0;orthogonalLoop=1;jettySize=auto;html=1;entryX=0.5;entryY=0;entryDx=0;entryDy=0;" parent="1" source="ZyGtXZ8tgcIjVtmT4fDo-173" target="ZyGtXZ8tgcIjVtmT4fDo-178" edge="1">
          <mxGeometry relative="1" as="geometry" />
        </mxCell>
        <mxCell id="ZyGtXZ8tgcIjVtmT4fDo-173" value="Alege camere" style="rounded=1;whiteSpace=wrap;html=1;" parent="1" vertex="1">
          <mxGeometry x="1145" y="1090" width="110" height="40" as="geometry" />
        </mxCell>
        <mxCell id="ZyGtXZ8tgcIjVtmT4fDo-175" style="edgeStyle=orthogonalEdgeStyle;rounded=0;orthogonalLoop=1;jettySize=auto;html=1;entryX=0.5;entryY=0;entryDx=0;entryDy=0;" parent="1" source="ZyGtXZ8tgcIjVtmT4fDo-174" target="ZyGtXZ8tgcIjVtmT4fDo-132" edge="1">
          <mxGeometry relative="1" as="geometry">
            <Array as="points">
              <mxPoint x="780" y="990" />
              <mxPoint x="780" y="610" />
              <mxPoint x="1045" y="610" />
            </Array>
          </mxGeometry>
        </mxCell>
        <mxCell id="ZyGtXZ8tgcIjVtmT4fDo-174" value="Back" style="rounded=1;whiteSpace=wrap;html=1;" parent="1" vertex="1">
          <mxGeometry x="835" y="980" width="85" height="20" as="geometry" />
        </mxCell>
        <mxCell id="ZyGtXZ8tgcIjVtmT4fDo-176" value="&lt;font style=&quot;font-size: 18px;&quot;&gt;Formular documente&lt;br&gt;&lt;/font&gt;" style="text;html=1;align=center;verticalAlign=middle;whiteSpace=wrap;rounded=0;" parent="1" vertex="1">
          <mxGeometry x="275" y="1320" width="60" height="30" as="geometry" />
        </mxCell>
        <mxCell id="ZyGtXZ8tgcIjVtmT4fDo-177" value="&lt;font style=&quot;font-size: 18px;&quot;&gt;Rezervari&lt;/font&gt; &lt;font style=&quot;font-size: 18px;&quot;&gt;- Alege Camin&lt;/font&gt;" style="text;html=1;align=center;verticalAlign=middle;whiteSpace=wrap;rounded=0;" parent="1" vertex="1">
          <mxGeometry x="1055" y="580" width="60" height="30" as="geometry" />
        </mxCell>
        <mxCell id="ZyGtXZ8tgcIjVtmT4fDo-178" value="" style="rounded=0;whiteSpace=wrap;html=1;" parent="1" vertex="1">
          <mxGeometry x="832.5" y="1270" width="425" height="200" as="geometry" />
        </mxCell>
        <mxCell id="ZyGtXZ8tgcIjVtmT4fDo-179" value="Back" style="rounded=1;whiteSpace=wrap;html=1;" parent="1" vertex="1">
          <mxGeometry x="835" y="1275" width="85" height="20" as="geometry" />
        </mxCell>
        <mxCell id="ZyGtXZ8tgcIjVtmT4fDo-183" value="&lt;h1 style=&quot;margin-top: 0px;&quot;&gt;Oglinda camin&lt;br&gt;&lt;/h1&gt;" style="text;html=1;whiteSpace=wrap;overflow=hidden;rounded=0;" parent="1" vertex="1">
          <mxGeometry x="840" y="1300" width="180" height="40" as="geometry" />
        </mxCell>
        <mxCell id="ZyGtXZ8tgcIjVtmT4fDo-184" value="1" style="rounded=0;whiteSpace=wrap;html=1;" parent="1" vertex="1">
          <mxGeometry x="850" y="1340" width="20" height="40" as="geometry" />
        </mxCell>
        <mxCell id="ZyGtXZ8tgcIjVtmT4fDo-185" value="2" style="rounded=0;whiteSpace=wrap;html=1;" parent="1" vertex="1">
          <mxGeometry x="880" y="1340" width="20" height="40" as="geometry" />
        </mxCell>
        <mxCell id="ZyGtXZ8tgcIjVtmT4fDo-186" value="3" style="rounded=0;whiteSpace=wrap;html=1;" parent="1" vertex="1">
          <mxGeometry x="910" y="1340" width="20" height="40" as="geometry" />
        </mxCell>
        <mxCell id="ZyGtXZ8tgcIjVtmT4fDo-187" value="4" style="rounded=0;whiteSpace=wrap;html=1;" parent="1" vertex="1">
          <mxGeometry x="940" y="1340" width="20" height="40" as="geometry" />
        </mxCell>
        <mxCell id="ZyGtXZ8tgcIjVtmT4fDo-188" value="5" style="rounded=0;whiteSpace=wrap;html=1;" parent="1" vertex="1">
          <mxGeometry x="970" y="1340" width="20" height="40" as="geometry" />
        </mxCell>
        <mxCell id="ZyGtXZ8tgcIjVtmT4fDo-189" value="6" style="rounded=0;whiteSpace=wrap;html=1;" parent="1" vertex="1">
          <mxGeometry x="1005" y="1340" width="20" height="40" as="geometry" />
        </mxCell>
        <mxCell id="ZyGtXZ8tgcIjVtmT4fDo-196" value="7" style="rounded=0;whiteSpace=wrap;html=1;" parent="1" vertex="1">
          <mxGeometry x="850" y="1405" width="20" height="40" as="geometry" />
        </mxCell>
        <mxCell id="ZyGtXZ8tgcIjVtmT4fDo-197" value="8" style="rounded=0;whiteSpace=wrap;html=1;" parent="1" vertex="1">
          <mxGeometry x="880" y="1405" width="20" height="40" as="geometry" />
        </mxCell>
        <mxCell id="ZyGtXZ8tgcIjVtmT4fDo-198" value="9" style="rounded=0;whiteSpace=wrap;html=1;" parent="1" vertex="1">
          <mxGeometry x="910" y="1405" width="20" height="40" as="geometry" />
        </mxCell>
        <mxCell id="ZyGtXZ8tgcIjVtmT4fDo-199" value="10" style="rounded=0;whiteSpace=wrap;html=1;" parent="1" vertex="1">
          <mxGeometry x="940" y="1405" width="20" height="40" as="geometry" />
        </mxCell>
        <mxCell id="ZyGtXZ8tgcIjVtmT4fDo-200" value="baie" style="rounded=0;whiteSpace=wrap;html=1;" parent="1" vertex="1">
          <mxGeometry x="970" y="1405" width="20" height="40" as="geometry" />
        </mxCell>
        <mxCell id="ZyGtXZ8tgcIjVtmT4fDo-201" value="12" style="rounded=0;whiteSpace=wrap;html=1;" parent="1" vertex="1">
          <mxGeometry x="1005" y="1405" width="20" height="40" as="geometry" />
        </mxCell>
        <mxCell id="ZyGtXZ8tgcIjVtmT4fDo-202" value="Hol" style="rounded=0;whiteSpace=wrap;html=1;" parent="1" vertex="1">
          <mxGeometry x="850" y="1380" width="180" height="30" as="geometry" />
        </mxCell>
        <mxCell id="ZyGtXZ8tgcIjVtmT4fDo-203" value="Scari" style="rounded=0;whiteSpace=wrap;html=1;" parent="1" vertex="1">
          <mxGeometry x="1030" y="1365" width="50" height="55" as="geometry" />
        </mxCell>
        <mxCell id="ZyGtXZ8tgcIjVtmT4fDo-204" value="" style="triangle;whiteSpace=wrap;html=1;rotation=-90;" parent="1" vertex="1">
          <mxGeometry x="1121.5" y="1408.5" width="15" height="35" as="geometry" />
        </mxCell>
        <mxCell id="ZyGtXZ8tgcIjVtmT4fDo-205" value="" style="triangle;whiteSpace=wrap;html=1;rotation=90;" parent="1" vertex="1">
          <mxGeometry x="1120.75" y="1429.25" width="16.5" height="35" as="geometry" />
        </mxCell>
        <mxCell id="ZyGtXZ8tgcIjVtmT4fDo-208" value="&lt;font style=&quot;font-size: 18px;&quot;&gt;Etajul&lt;/font&gt; &lt;font style=&quot;font-size: 18px;&quot;&gt;1&lt;/font&gt;" style="text;html=1;align=center;verticalAlign=middle;whiteSpace=wrap;rounded=0;" parent="1" vertex="1">
          <mxGeometry x="1150" y="1420" width="70" height="30" as="geometry" />
        </mxCell>
        <mxCell id="ZyGtXZ8tgcIjVtmT4fDo-209" value="Help" style="rounded=1;whiteSpace=wrap;html=1;" parent="1" vertex="1">
          <mxGeometry x="1030" y="1282.5" width="90" height="35" as="geometry" />
        </mxCell>
        <mxCell id="ZyGtXZ8tgcIjVtmT4fDo-210" value="&lt;div&gt;Camerele&lt;/div&gt;&lt;div&gt;mele&lt;br&gt;&lt;/div&gt;" style="rounded=1;whiteSpace=wrap;html=1;" parent="1" vertex="1">
          <mxGeometry x="1136.5" y="1280" width="110" height="40" as="geometry" />
        </mxCell>
        <mxCell id="ZyGtXZ8tgcIjVtmT4fDo-211" value="ex: 1, 2, 7" style="rounded=0;whiteSpace=wrap;html=1;" parent="1" vertex="1">
          <mxGeometry x="1120" y="1378" width="60" height="22" as="geometry" />
        </mxCell>
        <mxCell id="ZyGtXZ8tgcIjVtmT4fDo-212" value="Add room" style="text;html=1;align=center;verticalAlign=middle;whiteSpace=wrap;rounded=0;" parent="1" vertex="1">
          <mxGeometry x="1085" y="1350" width="130" height="30" as="geometry" />
        </mxCell>
        <mxCell id="ZyGtXZ8tgcIjVtmT4fDo-218" style="edgeStyle=orthogonalEdgeStyle;rounded=0;orthogonalLoop=1;jettySize=auto;html=1;entryX=0.5;entryY=0;entryDx=0;entryDy=0;" parent="1" source="ZyGtXZ8tgcIjVtmT4fDo-214" target="ZyGtXZ8tgcIjVtmT4fDo-178" edge="1">
          <mxGeometry relative="1" as="geometry">
            <Array as="points">
              <mxPoint x="1290" y="1388" />
              <mxPoint x="1290" y="1230" />
              <mxPoint x="1045" y="1230" />
            </Array>
          </mxGeometry>
        </mxCell>
        <mxCell id="ZyGtXZ8tgcIjVtmT4fDo-214" value="ADD" style="rounded=1;whiteSpace=wrap;html=1;" parent="1" vertex="1">
          <mxGeometry x="1195" y="1378" width="40" height="20" as="geometry" />
        </mxCell>
        <mxCell id="ZyGtXZ8tgcIjVtmT4fDo-215" value="&lt;sup&gt;&lt;font style=&quot;font-size: 6px;&quot;&gt;(goto help fore more info)&lt;/font&gt;&lt;/sup&gt;" style="text;html=1;align=center;verticalAlign=middle;whiteSpace=wrap;rounded=0;" parent="1" vertex="1">
          <mxGeometry x="1167" y="1355" width="78" height="10" as="geometry" />
        </mxCell>
        <mxCell id="ZyGtXZ8tgcIjVtmT4fDo-217" style="edgeStyle=orthogonalEdgeStyle;rounded=0;orthogonalLoop=1;jettySize=auto;html=1;entryX=0.341;entryY=0.013;entryDx=0;entryDy=0;entryPerimeter=0;" parent="1" source="ZyGtXZ8tgcIjVtmT4fDo-179" target="ZyGtXZ8tgcIjVtmT4fDo-162" edge="1">
          <mxGeometry relative="1" as="geometry">
            <Array as="points">
              <mxPoint x="740" y="1285" />
              <mxPoint x="740" y="930" />
              <mxPoint x="980" y="930" />
            </Array>
          </mxGeometry>
        </mxCell>
        <mxCell id="ZyGtXZ8tgcIjVtmT4fDo-219" value="" style="rounded=0;whiteSpace=wrap;html=1;" parent="1" vertex="1">
          <mxGeometry x="1490" y="1268" width="420" height="212" as="geometry" />
        </mxCell>
        <mxCell id="ZyGtXZ8tgcIjVtmT4fDo-220" value="" style="rounded=0;whiteSpace=wrap;html=1;" parent="1" vertex="1">
          <mxGeometry x="1255" y="1550" width="220" height="128" as="geometry" />
        </mxCell>
        <mxCell id="ZyGtXZ8tgcIjVtmT4fDo-221" value="&lt;h1 style=&quot;margin-top: 0px;&quot;&gt;Help - camere&lt;br&gt;&lt;/h1&gt;&lt;p&gt;daca prima optiune este dintr-un anumit camin/etaj vom incerca sa te repartizam cam in acelasi loc (vom tine cont de caminul si etajul pe care e camera aleasa de tine)&lt;br&gt;&lt;/p&gt;" style="text;html=1;whiteSpace=wrap;overflow=hidden;rounded=0;" parent="1" vertex="1">
          <mxGeometry x="1265" y="1550" width="180" height="120" as="geometry" />
        </mxCell>
        <mxCell id="ZyGtXZ8tgcIjVtmT4fDo-222" value="" style="rounded=0;whiteSpace=wrap;html=1;" parent="1" vertex="1">
          <mxGeometry x="1510" y="1290" width="10" height="10" as="geometry" />
        </mxCell>
        <mxCell id="ZyGtXZ8tgcIjVtmT4fDo-223" value="1. camera 123, camin T2 etaj 1" style="text;html=1;align=center;verticalAlign=middle;whiteSpace=wrap;rounded=0;" parent="1" vertex="1">
          <mxGeometry x="1520" y="1280" width="170" height="30" as="geometry" />
        </mxCell>
        <mxCell id="ZyGtXZ8tgcIjVtmT4fDo-224" value="" style="rounded=0;whiteSpace=wrap;html=1;" parent="1" vertex="1">
          <mxGeometry x="1510" y="1320" width="10" height="10" as="geometry" />
        </mxCell>
        <mxCell id="ZyGtXZ8tgcIjVtmT4fDo-225" value="2. camera 223, camin T2 etaj 2" style="text;html=1;align=center;verticalAlign=middle;whiteSpace=wrap;rounded=0;" parent="1" vertex="1">
          <mxGeometry x="1520" y="1310" width="170" height="30" as="geometry" />
        </mxCell>
        <mxCell id="ZyGtXZ8tgcIjVtmT4fDo-226" value="" style="rounded=0;whiteSpace=wrap;html=1;" parent="1" vertex="1">
          <mxGeometry x="1510" y="1350" width="10" height="10" as="geometry" />
        </mxCell>
        <mxCell id="ZyGtXZ8tgcIjVtmT4fDo-227" value="3. camera 323, camin T2 etaj 3" style="text;html=1;align=center;verticalAlign=middle;whiteSpace=wrap;rounded=0;" parent="1" vertex="1">
          <mxGeometry x="1520" y="1340" width="170" height="30" as="geometry" />
        </mxCell>
        <mxCell id="ZyGtXZ8tgcIjVtmT4fDo-228" value="" style="rounded=0;whiteSpace=wrap;html=1;" parent="1" vertex="1">
          <mxGeometry x="1510" y="1380" width="10" height="10" as="geometry" />
        </mxCell>
        <mxCell id="ZyGtXZ8tgcIjVtmT4fDo-229" value="4. camera 423, camin T2 etaj 4" style="text;html=1;align=center;verticalAlign=middle;whiteSpace=wrap;rounded=0;" parent="1" vertex="1">
          <mxGeometry x="1520" y="1370" width="170" height="30" as="geometry" />
        </mxCell>
        <mxCell id="ZyGtXZ8tgcIjVtmT4fDo-230" value="" style="rounded=0;whiteSpace=wrap;html=1;" parent="1" vertex="1">
          <mxGeometry x="1510" y="1415" width="10" height="10" as="geometry" />
        </mxCell>
        <mxCell id="ZyGtXZ8tgcIjVtmT4fDo-231" value="5. camera 19A, camin T19 etaj 1" style="text;html=1;align=center;verticalAlign=middle;whiteSpace=wrap;rounded=0;" parent="1" vertex="1">
          <mxGeometry x="1520" y="1405" width="180" height="30" as="geometry" />
        </mxCell>
        <mxCell id="ZyGtXZ8tgcIjVtmT4fDo-232" value="" style="rounded=0;whiteSpace=wrap;html=1;" parent="1" vertex="1">
          <mxGeometry x="1510" y="1445" width="10" height="10" as="geometry" />
        </mxCell>
        <mxCell id="ZyGtXZ8tgcIjVtmT4fDo-233" value="5. camera 124, camin T2 etaj 1" style="text;html=1;align=center;verticalAlign=middle;whiteSpace=wrap;rounded=0;" parent="1" vertex="1">
          <mxGeometry x="1520" y="1435" width="170" height="30" as="geometry" />
        </mxCell>
        <mxCell id="ZyGtXZ8tgcIjVtmT4fDo-234" value="" style="verticalLabelPosition=bottom;verticalAlign=top;html=1;shape=mxgraph.basic.tick;fillColor=#E11CFF;" parent="1" vertex="1">
          <mxGeometry x="1505" y="1370" width="20" height="20" as="geometry" />
        </mxCell>
        <mxCell id="ZyGtXZ8tgcIjVtmT4fDo-249" style="edgeStyle=orthogonalEdgeStyle;rounded=0;orthogonalLoop=1;jettySize=auto;html=1;entryX=0.5;entryY=0;entryDx=0;entryDy=0;" parent="1" source="ZyGtXZ8tgcIjVtmT4fDo-235" target="ZyGtXZ8tgcIjVtmT4fDo-248" edge="1">
          <mxGeometry relative="1" as="geometry">
            <Array as="points">
              <mxPoint x="1765" y="1230" />
              <mxPoint x="2065" y="1230" />
            </Array>
          </mxGeometry>
        </mxCell>
        <mxCell id="ZyGtXZ8tgcIjVtmT4fDo-235" value="Add colegi" style="rounded=1;whiteSpace=wrap;html=1;" parent="1" vertex="1">
          <mxGeometry x="1730" y="1283" width="70" height="27" as="geometry" />
        </mxCell>
        <mxCell id="ZyGtXZ8tgcIjVtmT4fDo-236" style="edgeStyle=orthogonalEdgeStyle;rounded=0;orthogonalLoop=1;jettySize=auto;html=1;entryX=0.008;entryY=0.555;entryDx=0;entryDy=0;entryPerimeter=0;" parent="1" source="ZyGtXZ8tgcIjVtmT4fDo-210" target="ZyGtXZ8tgcIjVtmT4fDo-219" edge="1">
          <mxGeometry relative="1" as="geometry" />
        </mxCell>
        <mxCell id="ZyGtXZ8tgcIjVtmT4fDo-237" value="" style="triangle;whiteSpace=wrap;html=1;rotation=-90;" parent="1" vertex="1">
          <mxGeometry x="1741.5" y="1405" width="15" height="35" as="geometry" />
        </mxCell>
        <mxCell id="ZyGtXZ8tgcIjVtmT4fDo-238" value="" style="triangle;whiteSpace=wrap;html=1;rotation=90;" parent="1" vertex="1">
          <mxGeometry x="1740" y="1430.75" width="16.5" height="35" as="geometry" />
        </mxCell>
        <mxCell id="ZyGtXZ8tgcIjVtmT4fDo-239" value="Move Up" style="text;html=1;align=center;verticalAlign=middle;whiteSpace=wrap;rounded=0;" parent="1" vertex="1">
          <mxGeometry x="1770" y="1410" width="60" height="30" as="geometry" />
        </mxCell>
        <mxCell id="ZyGtXZ8tgcIjVtmT4fDo-240" value="Move Down" style="text;html=1;align=center;verticalAlign=middle;whiteSpace=wrap;rounded=0;" parent="1" vertex="1">
          <mxGeometry x="1770" y="1431.75" width="70" height="30" as="geometry" />
        </mxCell>
        <mxCell id="ZyGtXZ8tgcIjVtmT4fDo-242" value="Drop" style="rounded=1;whiteSpace=wrap;html=1;" parent="1" vertex="1">
          <mxGeometry x="1730" y="1325" width="70" height="25" as="geometry" />
        </mxCell>
        <mxCell id="ZyGtXZ8tgcIjVtmT4fDo-243" value="" style="triangle;whiteSpace=wrap;html=1;rotation=-90;" parent="1" vertex="1">
          <mxGeometry x="1741.5" y="1354.25" width="15" height="35" as="geometry" />
        </mxCell>
        <mxCell id="ZyGtXZ8tgcIjVtmT4fDo-244" value="" style="triangle;whiteSpace=wrap;html=1;rotation=90;" parent="1" vertex="1">
          <mxGeometry x="1740" y="1380" width="16.5" height="35" as="geometry" />
        </mxCell>
        <mxCell id="ZyGtXZ8tgcIjVtmT4fDo-245" value="Move First" style="text;html=1;align=center;verticalAlign=middle;whiteSpace=wrap;rounded=0;" parent="1" vertex="1">
          <mxGeometry x="1770" y="1359.25" width="60" height="30" as="geometry" />
        </mxCell>
        <mxCell id="ZyGtXZ8tgcIjVtmT4fDo-246" value="Move Last" style="text;html=1;align=center;verticalAlign=middle;whiteSpace=wrap;rounded=0;" parent="1" vertex="1">
          <mxGeometry x="1770" y="1380" width="70" height="31" as="geometry" />
        </mxCell>
        <mxCell id="ZyGtXZ8tgcIjVtmT4fDo-247" value="Help" style="rounded=1;whiteSpace=wrap;html=1;" parent="1" vertex="1">
          <mxGeometry x="1820" y="1275" width="80" height="25" as="geometry" />
        </mxCell>
        <mxCell id="ZyGtXZ8tgcIjVtmT4fDo-248" value="" style="rounded=0;whiteSpace=wrap;html=1;" parent="1" vertex="1">
          <mxGeometry x="1970" y="1305" width="190" height="155" as="geometry" />
        </mxCell>
        <mxCell id="ZyGtXZ8tgcIjVtmT4fDo-250" value="" style="rounded=0;whiteSpace=wrap;html=1;" parent="1" vertex="1">
          <mxGeometry x="1990" y="1330" width="140" height="20" as="geometry" />
        </mxCell>
        <mxCell id="ZyGtXZ8tgcIjVtmT4fDo-251" value="Coleg1" style="text;html=1;align=center;verticalAlign=middle;whiteSpace=wrap;rounded=0;" parent="1" vertex="1">
          <mxGeometry x="1980" y="1305" width="60" height="30" as="geometry" />
        </mxCell>
        <mxCell id="ZyGtXZ8tgcIjVtmT4fDo-252" value="" style="rounded=0;whiteSpace=wrap;html=1;" parent="1" vertex="1">
          <mxGeometry x="1995" y="1378" width="140" height="20" as="geometry" />
        </mxCell>
        <mxCell id="ZyGtXZ8tgcIjVtmT4fDo-253" value="Coleg2" style="text;html=1;align=center;verticalAlign=middle;whiteSpace=wrap;rounded=0;" parent="1" vertex="1">
          <mxGeometry x="1985" y="1353" width="60" height="30" as="geometry" />
        </mxCell>
        <mxCell id="ZyGtXZ8tgcIjVtmT4fDo-254" value="ETC. in functie de camera" style="text;html=1;align=center;verticalAlign=middle;whiteSpace=wrap;rounded=0;" parent="1" vertex="1">
          <mxGeometry x="1980" y="1398" width="85" height="30" as="geometry" />
        </mxCell>
        <mxCell id="ZyGtXZ8tgcIjVtmT4fDo-256" value="ADD" style="rounded=1;whiteSpace=wrap;html=1;" parent="1" vertex="1">
          <mxGeometry x="2080" y="1430" width="70" height="24" as="geometry" />
        </mxCell>
        <mxCell id="ZyGtXZ8tgcIjVtmT4fDo-257" value="Cancel" style="rounded=1;whiteSpace=wrap;html=1;" parent="1" vertex="1">
          <mxGeometry x="1995" y="1430.75" width="70" height="24" as="geometry" />
        </mxCell>
        <mxCell id="cgmhg69_J9EVEcaa6xdJ-1" value="" style="rounded=0;whiteSpace=wrap;html=1;" parent="1" vertex="1">
          <mxGeometry x="1428" y="630" width="445" height="220" as="geometry" />
        </mxCell>
        <mxCell id="cgmhg69_J9EVEcaa6xdJ-2" value="&lt;font style=&quot;font-size: 18px;&quot;&gt;Contact Us&lt;br&gt;&lt;/font&gt;" style="text;html=1;align=center;verticalAlign=middle;whiteSpace=wrap;rounded=0;" parent="1" vertex="1">
          <mxGeometry x="1648" y="600" width="95" height="30" as="geometry" />
        </mxCell>
        <mxCell id="cgmhg69_J9EVEcaa6xdJ-3" value="" style="rounded=0;whiteSpace=wrap;html=1;" parent="1" vertex="1">
          <mxGeometry x="1498" y="665" width="140" height="20" as="geometry" />
        </mxCell>
        <mxCell id="cgmhg69_J9EVEcaa6xdJ-4" value="" style="rounded=0;whiteSpace=wrap;html=1;" parent="1" vertex="1">
          <mxGeometry x="1498" y="705" width="140" height="22.5" as="geometry" />
        </mxCell>
        <mxCell id="cgmhg69_J9EVEcaa6xdJ-5" value="Titlu" style="text;html=1;align=center;verticalAlign=middle;whiteSpace=wrap;rounded=0;" parent="1" vertex="1">
          <mxGeometry x="1428" y="660" width="60" height="30" as="geometry" />
        </mxCell>
        <mxCell id="cgmhg69_J9EVEcaa6xdJ-6" value="Selecteaza categoria" style="text;html=1;align=center;verticalAlign=middle;whiteSpace=wrap;rounded=0;" parent="1" vertex="1">
          <mxGeometry x="1428" y="705" width="60" height="30" as="geometry" />
        </mxCell>
        <mxCell id="cgmhg69_J9EVEcaa6xdJ-7" value="" style="triangle;whiteSpace=wrap;html=1;rotation=90;" parent="1" vertex="1">
          <mxGeometry x="1503" y="702.5" width="15" height="25" as="geometry" />
        </mxCell>
        <mxCell id="cgmhg69_J9EVEcaa6xdJ-9" value="" style="rounded=0;whiteSpace=wrap;html=1;" parent="1" vertex="1">
          <mxGeometry x="1498" y="745" width="180" height="90" as="geometry" />
        </mxCell>
        <mxCell id="cgmhg69_J9EVEcaa6xdJ-10" value="Message" style="text;html=1;align=center;verticalAlign=middle;whiteSpace=wrap;rounded=0;" parent="1" vertex="1">
          <mxGeometry x="1428" y="745" width="60" height="30" as="geometry" />
        </mxCell>
        <mxCell id="ElczL5HrcGGBrYlK7Y7n-1" value="Send" style="rounded=1;whiteSpace=wrap;html=1;" parent="1" vertex="1">
          <mxGeometry x="1708" y="795" width="80" height="30" as="geometry" />
        </mxCell>
        <mxCell id="ElczL5HrcGGBrYlK7Y7n-3" style="edgeStyle=orthogonalEdgeStyle;rounded=0;orthogonalLoop=1;jettySize=auto;html=1;entryX=0.004;entryY=0.708;entryDx=0;entryDy=0;entryPerimeter=0;" parent="1" source="ZyGtXZ8tgcIjVtmT4fDo-34" target="cgmhg69_J9EVEcaa6xdJ-1" edge="1">
          <mxGeometry relative="1" as="geometry">
            <Array as="points">
              <mxPoint x="1055" y="470" />
              <mxPoint x="1330" y="470" />
              <mxPoint x="1330" y="786" />
            </Array>
          </mxGeometry>
        </mxCell>
        <mxCell id="ElczL5HrcGGBrYlK7Y7n-4" style="edgeStyle=orthogonalEdgeStyle;rounded=0;orthogonalLoop=1;jettySize=auto;html=1;entryX=0.342;entryY=1;entryDx=0;entryDy=0;entryPerimeter=0;" parent="1" source="ElczL5HrcGGBrYlK7Y7n-1" target="cgmhg69_J9EVEcaa6xdJ-1" edge="1">
          <mxGeometry relative="1" as="geometry">
            <Array as="points">
              <mxPoint x="1748" y="915" />
              <mxPoint x="1580" y="915" />
            </Array>
          </mxGeometry>
        </mxCell>
        <mxCell id="ElczL5HrcGGBrYlK7Y7n-5" value="" style="rounded=0;whiteSpace=wrap;html=1;" parent="1" vertex="1">
          <mxGeometry x="1355" y="315" width="345" height="217.5" as="geometry" />
        </mxCell>
        <mxCell id="ElczL5HrcGGBrYlK7Y7n-6" value="&lt;font style=&quot;font-size: 18px;&quot;&gt;Inbox&lt;/font&gt;" style="text;html=1;align=center;verticalAlign=middle;whiteSpace=wrap;rounded=0;" parent="1" vertex="1">
          <mxGeometry x="1480" y="280" width="60" height="30" as="geometry" />
        </mxCell>
        <mxCell id="ElczL5HrcGGBrYlK7Y7n-7" value="From: &lt;span style=&quot;white-space: pre;&quot;&gt; MIchael&lt;span style=&quot;white-space: pre;&quot;&gt;&#x9;&lt;/span&gt;Body: some small part&lt;/span&gt;" style="rounded=1;whiteSpace=wrap;html=1;" parent="1" vertex="1">
          <mxGeometry x="1375" y="330" width="225" height="35" as="geometry" />
        </mxCell>
        <mxCell id="ElczL5HrcGGBrYlK7Y7n-8" value="From: &lt;span style=&quot;white-space: pre;&quot;&gt; Dan&lt;span style=&quot;white-space: pre;&quot;&gt;&#x9;&lt;/span&gt;Body: some small part&lt;/span&gt;" style="rounded=1;whiteSpace=wrap;html=1;" parent="1" vertex="1">
          <mxGeometry x="1375" y="372.5" width="225" height="35" as="geometry" />
        </mxCell>
        <mxCell id="ElczL5HrcGGBrYlK7Y7n-9" value="From: &lt;span style=&quot;white-space: pre;&quot;&gt; Mierela&lt;span style=&quot;white-space: pre;&quot;&gt;&#x9;&lt;/span&gt;Body: some small part&lt;/span&gt;" style="rounded=1;whiteSpace=wrap;html=1;" parent="1" vertex="1">
          <mxGeometry x="1375" y="420" width="225" height="35" as="geometry" />
        </mxCell>
        <mxCell id="ElczL5HrcGGBrYlK7Y7n-10" value="From: &lt;span style=&quot;white-space: pre;&quot;&gt; Anna&lt;span style=&quot;white-space: pre;&quot;&gt;&#x9;&lt;/span&gt;Body: some small part&lt;/span&gt;" style="rounded=1;whiteSpace=wrap;html=1;" parent="1" vertex="1">
          <mxGeometry x="1375" y="470" width="225" height="35" as="geometry" />
        </mxCell>
        <mxCell id="ElczL5HrcGGBrYlK7Y7n-11" value="" style="shape=mxgraph.signs.tech.mail;html=1;pointerEvents=1;fillColor=#000000;strokeColor=none;verticalLabelPosition=bottom;verticalAlign=top;align=center;" parent="1" vertex="1">
          <mxGeometry x="1608" y="335" width="22" height="15" as="geometry" />
        </mxCell>
        <mxCell id="ElczL5HrcGGBrYlK7Y7n-12" value="" style="shape=mxgraph.signs.tech.mail;html=1;pointerEvents=1;fillColor=#000000;strokeColor=none;verticalLabelPosition=bottom;verticalAlign=top;align=center;" parent="1" vertex="1">
          <mxGeometry x="1608" y="382.5" width="22" height="15" as="geometry" />
        </mxCell>
        <mxCell id="ElczL5HrcGGBrYlK7Y7n-13" value="" style="shape=mxgraph.signs.tech.mail;html=1;pointerEvents=1;fillColor=#000000;strokeColor=none;verticalLabelPosition=bottom;verticalAlign=top;align=center;" parent="1" vertex="1">
          <mxGeometry x="1606" y="430" width="22" height="15" as="geometry" />
        </mxCell>
        <mxCell id="ElczL5HrcGGBrYlK7Y7n-14" value="" style="shape=mxgraph.signs.tech.mail;html=1;pointerEvents=1;fillColor=#000000;strokeColor=none;verticalLabelPosition=bottom;verticalAlign=top;align=center;" parent="1" vertex="1">
          <mxGeometry x="1606" y="480" width="22" height="15" as="geometry" />
        </mxCell>
        <mxCell id="ElczL5HrcGGBrYlK7Y7n-16" value="Mark as unread" style="text;html=1;align=center;verticalAlign=middle;whiteSpace=wrap;rounded=0;" parent="1" vertex="1">
          <mxGeometry x="1626.5" y="327.5" width="60" height="30" as="geometry" />
        </mxCell>
        <mxCell id="ElczL5HrcGGBrYlK7Y7n-17" value="Mark as unread" style="text;html=1;align=center;verticalAlign=middle;whiteSpace=wrap;rounded=0;" parent="1" vertex="1">
          <mxGeometry x="1628" y="372.5" width="60" height="30" as="geometry" />
        </mxCell>
        <mxCell id="ElczL5HrcGGBrYlK7Y7n-18" value="Mark as unread" style="text;html=1;align=center;verticalAlign=middle;whiteSpace=wrap;rounded=0;" parent="1" vertex="1">
          <mxGeometry x="1630" y="425" width="60" height="30" as="geometry" />
        </mxCell>
        <mxCell id="ElczL5HrcGGBrYlK7Y7n-19" value="Mark as unread" style="text;html=1;align=center;verticalAlign=middle;whiteSpace=wrap;rounded=0;" parent="1" vertex="1">
          <mxGeometry x="1626.5" y="475" width="60" height="30" as="geometry" />
        </mxCell>
        <mxCell id="ElczL5HrcGGBrYlK7Y7n-21" value="" style="rounded=0;whiteSpace=wrap;html=1;" parent="1" vertex="1">
          <mxGeometry x="1810" y="343" width="230" height="177" as="geometry" />
        </mxCell>
        <mxCell id="ElczL5HrcGGBrYlK7Y7n-22" value="&lt;h1 style=&quot;margin-top: 0px;&quot;&gt;From&lt;/h1&gt;&lt;h1 style=&quot;margin-top: 0px;&quot;&gt;Title:&lt;/h1&gt;&lt;p&gt;Hi mai neim is marcoooooo&lt;/p&gt;&lt;p&gt;haahhahahhahhhaha&lt;br&gt;&lt;/p&gt;" style="text;html=1;whiteSpace=wrap;overflow=hidden;rounded=0;" parent="1" vertex="1">
          <mxGeometry x="1820" y="352" width="180" height="158" as="geometry" />
        </mxCell>
        <mxCell id="ElczL5HrcGGBrYlK7Y7n-24" style="edgeStyle=orthogonalEdgeStyle;rounded=0;orthogonalLoop=1;jettySize=auto;html=1;entryX=0.474;entryY=0.008;entryDx=0;entryDy=0;entryPerimeter=0;" parent="1" source="ElczL5HrcGGBrYlK7Y7n-7" target="ElczL5HrcGGBrYlK7Y7n-21" edge="1">
          <mxGeometry relative="1" as="geometry">
            <Array as="points">
              <mxPoint x="1450" y="240" />
              <mxPoint x="1919" y="240" />
            </Array>
          </mxGeometry>
        </mxCell>
        <mxCell id="ElczL5HrcGGBrYlK7Y7n-25" value="&lt;font style=&quot;font-size: 18px;&quot;&gt;Message&lt;/font&gt;" style="text;html=1;align=center;verticalAlign=middle;whiteSpace=wrap;rounded=0;" parent="1" vertex="1">
          <mxGeometry x="1930" y="306" width="60" height="30" as="geometry" />
        </mxCell>
        <mxCell id="9Zw5IbsphhX87AiI0oiR-3" value="&lt;div&gt;&lt;font style=&quot;font-size: 18px;&quot;&gt;Serviciu&lt;/font&gt;&lt;/div&gt;&lt;div&gt;&lt;font size=&quot;3&quot;&gt;Auth&lt;/font&gt;&lt;br&gt;&lt;/div&gt;" style="rounded=0;whiteSpace=wrap;html=1;fillColor=#e1d5e7;strokeColor=#9673a6;" vertex="1" parent="1">
          <mxGeometry x="140" y="210" width="100" height="50" as="geometry" />
        </mxCell>
        <mxCell id="9Zw5IbsphhX87AiI0oiR-5" value="&lt;div&gt;&lt;font style=&quot;font-size: 18px;&quot;&gt;Serviciu&lt;/font&gt;&lt;/div&gt;&lt;div&gt;&lt;font size=&quot;3&quot;&gt;Cereri&lt;/font&gt;&lt;br&gt;&lt;/div&gt;" style="rounded=0;whiteSpace=wrap;html=1;fillColor=#d5e8d4;strokeColor=#82b366;" vertex="1" parent="1">
          <mxGeometry x="40" y="1040" width="100" height="50" as="geometry" />
        </mxCell>
        <mxCell id="9Zw5IbsphhX87AiI0oiR-7" value="&lt;div&gt;&lt;font style=&quot;font-size: 18px;&quot;&gt;Serviciu&lt;/font&gt;&lt;/div&gt;&lt;div&gt;&lt;font style=&quot;font-size: 18px;&quot;&gt;Camine&lt;/font&gt;&lt;br&gt;&lt;/div&gt;" style="rounded=0;whiteSpace=wrap;html=1;fillColor=#f8cecc;strokeColor=#b85450;" vertex="1" parent="1">
          <mxGeometry x="1210" y="520" width="100" height="80" as="geometry" />
        </mxCell>
        <mxCell id="9Zw5IbsphhX87AiI0oiR-9" value="&lt;div&gt;&lt;font style=&quot;font-size: 18px;&quot;&gt;Serviciu&lt;/font&gt;&lt;/div&gt;&lt;div&gt;&lt;font style=&quot;font-size: 18px;&quot;&gt;Documente&lt;/font&gt;&lt;br&gt;&lt;/div&gt;" style="rounded=0;whiteSpace=wrap;html=1;fillColor=#dae8fc;strokeColor=#6c8ebf;" vertex="1" parent="1">
          <mxGeometry x="10" y="1142.5" width="105" height="57.5" as="geometry" />
        </mxCell>
        <mxCell id="9Zw5IbsphhX87AiI0oiR-11" value="&lt;div&gt;&lt;font style=&quot;font-size: 18px;&quot;&gt;Serviciu&lt;/font&gt;&lt;/div&gt;&lt;div&gt;&lt;font style=&quot;font-size: 18px;&quot;&gt;Repartizari&lt;/font&gt;&lt;br&gt;&lt;/div&gt;" style="rounded=0;whiteSpace=wrap;html=1;fillColor=#FF0000;strokeColor=#FF5A5A;" vertex="1" parent="1">
          <mxGeometry x="1460" y="1180" width="100" height="50" as="geometry" />
        </mxCell>
        <mxCell id="9Zw5IbsphhX87AiI0oiR-13" value="&lt;div&gt;&lt;font style=&quot;font-size: 18px;&quot;&gt;Serviciu&lt;/font&gt;&lt;/div&gt;&lt;div&gt;&lt;font style=&quot;font-size: 18px;&quot;&gt;Feedback&lt;/font&gt;&lt;br&gt;&lt;/div&gt;" style="rounded=0;whiteSpace=wrap;html=1;fillColor=#D86EFF;strokeColor=#FF5A5A;" vertex="1" parent="1">
          <mxGeometry x="1830" y="890" width="100" height="50" as="geometry" />
        </mxCell>
        <mxCell id="9Zw5IbsphhX87AiI0oiR-16" value="&lt;div&gt;&lt;font style=&quot;font-size: 18px;&quot;&gt;Serviciu&lt;/font&gt;&lt;/div&gt;&lt;div&gt;&lt;font style=&quot;font-size: 18px;&quot;&gt;Notificari&lt;/font&gt;&lt;br&gt;&lt;/div&gt;" style="rounded=0;whiteSpace=wrap;html=1;fillColor=#d5e8d4;strokeColor=#82b366;" vertex="1" parent="1">
          <mxGeometry x="2000" y="205" width="100" height="50" as="geometry" />
        </mxCell>
      </root>
    </mxGraphModel>
  </diagram>
</mxfile>
